  0
SECTION
  2
HEADER
  9
$ACADVER
  1
AC1024
  9
$ACADMAINTVER
 70
6
  9
$DWGCODEPAGE
  3
ANSI_1252
  9
$LASTSAVEDBY
  1
ezdxf
  9
$INSBASE
 10
0.0
 20
0.0
 30
0.0
  9
$EXTMIN
 10
1e+20
 20
1e+20
 30
1e+20
  9
$EXTMAX
 10
-1e+20
 20
-1e+20
 30
-1e+20
  9
$LIMMIN
 10
0.0
 20
0.0
  9
$LIMMAX
 10
420.0
 20
297.0
  9
$ORTHOMODE
 70
0
  9
$REGENMODE
 70
1
  9
$FILLMODE
 70
1
  9
$QTEXTMODE
 70
0
  9
$MIRRTEXT
 70
1
  9
$LTSCALE
 40
1.0
  9
$ATTMODE
 70
1
  9
$TEXTSIZE
 40
2.5
  9
$TRACEWID
 40
1.0
  9
$TEXTSTYLE
  7
Standard
  9
$CLAYER
  8
0
  9
$CELTYPE
  6
ByLayer
  9
$CECOLOR
 62
256
  9
$CELTSCALE
 40
1.0
  9
$DISPSILH
 70
0
  9
$DIMSCALE
 40
1.0
  9
$DIMASZ
 40
2.5
  9
$DIMEXO
 40
0.625
  9
$DIMDLI
 40
3.75
  9
$DIMRND
 40
0.0
  9
$DIMDLE
 40
0.0
  9
$DIMEXE
 40
1.25
  9
$DIMTP
 40
0.0
  9
$DIMTM
 40
0.0
  9
$DIMTXT
 40
2.5
  9
$DIMCEN
 40
2.5
  9
$DIMTSZ
 40
0.0
  9
$DIMTOL
 70
0
  9
$DIMLIM
 70
0
  9
$DIMTIH
 70
0
  9
$DIMTOH
 70
0
  9
$DIMSE1
 70
0
  9
$DIMSE2
 70
0
  9
$DIMTAD
 70
1
  9
$DIMZIN
 70
8
  9
$DIMBLK
  1

  9
$DIMASO
 70
1
  9
$DIMSHO
 70
1
  9
$DIMPOST
  1

  9
$DIMAPOST
  1

  9
$DIMALT
 70
0
  9
$DIMALTD
 70
3
  9
$DIMALTF
 40
0.03937007874
  9
$DIMLFAC
 40
1.0
  9
$DIMTOFL
 70
1
  9
$DIMTVP
 40
0.0
  9
$DIMTIX
 70
0
  9
$DIMSOXD
 70
0
  9
$DIMSAH
 70
0
  9
$DIMBLK1
  1

  9
$DIMBLK2
  1

  9
$DIMSTYLE
  2
ISO-25
  9
$DIMCLRD
 70
0
  9
$DIMCLRE
 70
0
  9
$DIMCLRT
 70
0
  9
$DIMTFAC
 40
1.0
  9
$DIMGAP
 40
0.625
  9
$DIMJUST
 70
0
  9
$DIMSD1
 70
0
  9
$DIMSD2
 70
0
  9
$DIMTOLJ
 70
0
  9
$DIMTZIN
 70
8
  9
$DIMALTZ
 70
0
  9
$DIMALTTZ
 70
0
  9
$DIMUPT
 70
0
  9
$DIMDEC
 70
2
  9
$DIMTDEC
 70
2
  9
$DIMALTU
 70
2
  9
$DIMALTTD
 70
3
  9
$DIMTXSTY
  7
Standard
  9
$DIMAUNIT
 70
0
  9
$DIMADEC
 70
0
  9
$DIMALTRND
 40
0.0
  9
$DIMAZIN
 70
0
  9
$DIMDSEP
 70
44
  9
$DIMATFIT
 70
3
  9
$DIMFRAC
 70
0
  9
$DIMLDRBLK
  1

  9
$DIMLUNIT
 70
2
  9
$DIMLWD
 70
-2
  9
$DIMLWE
 70
-2
  9
$DIMTMOVE
 70
0
  9
$DIMFXL
 40
1.0
  9
$DIMFXLON
 70
0
  9
$DIMJOGANG
 40
0.785398163397
  9
$DIMTFILL
 70
0
  9
$DIMTFILLCLR
 70
0
  9
$DIMARCSYM
 70
0
  9
$DIMLTYPE
  6

  9
$DIMLTEX1
  6

  9
$DIMLTEX2
  6

  9
$DIMTXTDIRECTION
 70
0
  9
$LUNITS
 70
2
  9
$LUPREC
 70
4
  9
$SKETCHINC
 40
1.0
  9
$FILLETRAD
 40
10.0
  9
$AUNITS
 70
0
  9
$AUPREC
 70
2
  9
$MENU
  1
.
  9
$ELEVATION
 40
0.0
  9
$PELEVATION
 40
0.0
  9
$THICKNESS
 40
0.0
  9
$LIMCHECK
 70
0
  9
$CHAMFERA
 40
0.0
  9
$CHAMFERB
 40
0.0
  9
$CHAMFERC
 40
0.0
  9
$CHAMFERD
 40
0.0
  9
$SKPOLY
 70
0
  9
$TDCREATE
 40
2460973.649074074
  9
$TDUCREATE
 40
2458532.153996898
  9
$TDUPDATE
 40
2460973.649074074
  9
$TDUUPDATE
 40
2458532.1544311
  9
$TDINDWG
 40
0.0
  9
$TDUSRTIMER
 40
0.0
  9
$USRTIMER
 70
1
  9
$ANGBASE
 50
0.0
  9
$ANGDIR
 70
0
  9
$PDMODE
 70
0
  9
$PDSIZE
 40
0.0
  9
$PLINEWID
 40
0.0
  9
$SPLFRAME
 70
0
  9
$SPLINETYPE
 70
6
  9
$SPLINESEGS
 70
8
  9
$HANDSEED
  5
3C
  9
$SURFTAB1
 70
6
  9
$SURFTAB2
 70
6
  9
$SURFTYPE
 70
6
  9
$SURFU
 70
6
  9
$SURFV
 70
6
  9
$UCSBASE
  2

  9
$UCSNAME
  2

  9
$UCSORG
 10
0.0
 20
0.0
 30
0.0
  9
$UCSXDIR
 10
1.0
 20
0.0
 30
0.0
  9
$UCSYDIR
 10
0.0
 20
1.0
 30
0.0
  9
$UCSORTHOREF
  2

  9
$UCSORTHOVIEW
 70
0
  9
$UCSORGTOP
 10
0.0
 20
0.0
 30
0.0
  9
$UCSORGBOTTOM
 10
0.0
 20
0.0
 30
0.0
  9
$UCSORGLEFT
 10
0.0
 20
0.0
 30
0.0
  9
$UCSORGRIGHT
 10
0.0
 20
0.0
 30
0.0
  9
$UCSORGFRONT
 10
0.0
 20
0.0
 30
0.0
  9
$UCSORGBACK
 10
0.0
 20
0.0
 30
0.0
  9
$PUCSBASE
  2

  9
$PUCSNAME
  2

  9
$PUCSORG
 10
0.0
 20
0.0
 30
0.0
  9
$PUCSXDIR
 10
1.0
 20
0.0
 30
0.0
  9
$PUCSYDIR
 10
0.0
 20
1.0
 30
0.0
  9
$PUCSORTHOREF
  2

  9
$PUCSORTHOVIEW
 70
0
  9
$PUCSORGTOP
 10
0.0
 20
0.0
 30
0.0
  9
$PUCSORGBOTTOM
 10
0.0
 20
0.0
 30
0.0
  9
$PUCSORGLEFT
 10
0.0
 20
0.0
 30
0.0
  9
$PUCSORGRIGHT
 10
0.0
 20
0.0
 30
0.0
  9
$PUCSORGFRONT
 10
0.0
 20
0.0
 30
0.0
  9
$PUCSORGBACK
 10
0.0
 20
0.0
 30
0.0
  9
$USERI1
 70
0
  9
$USERI2
 70
0
  9
$USERI3
 70
0
  9
$USERI4
 70
0
  9
$USERI5
 70
0
  9
$USERR1
 40
0.0
  9
$USERR2
 40
0.0
  9
$USERR3
 40
0.0
  9
$USERR4
 40
0.0
  9
$USERR5
 40
0.0
  9
$WORLDVIEW
 70
1
  9
$SHADEDGE
 70
3
  9
$SHADEDIF
 70
70
  9
$TILEMODE
 70
1
  9
$MAXACTVP
 70
64
  9
$PINSBASE
 10
0.0
 20
0.0
 30
0.0
  9
$PLIMCHECK
 70
0
  9
$PEXTMIN
 10
1e+20
 20
1e+20
 30
1e+20
  9
$PEXTMAX
 10
-1e+20
 20
-1e+20
 30
-1e+20
  9
$PLIMMIN
 10
0.0
 20
0.0
  9
$PLIMMAX
 10
420.0
 20
297.0
  9
$UNITMODE
 70
0
  9
$VISRETAIN
 70
1
  9
$PLINEGEN
 70
0
  9
$PSLTSCALE
 70
1
  9
$TREEDEPTH
 70
3020
  9
$CMLSTYLE
  2
Standard
  9
$CMLJUST
 70
0
  9
$CMLSCALE
 40
20.0
  9
$PROXYGRAPHICS
 70
1
  9
$MEASUREMENT
 70
1
  9
$CELWEIGHT
370
-1
  9
$ENDCAPS
280
0
  9
$JOINSTYLE
280
0
  9
$LWDISPLAY
290
0
  9
$INSUNITS
 70
6
  9
$HYPERLINKBASE
  1

  9
$STYLESHEET
  1

  9
$XEDIT
290
1
  9
$CEPSNTYPE
380
0
  9
$PSTYLEMODE
290
1
  9
$FINGERPRINTGUID
  2
{91F16FE6-A10A-42AC-BB69-3C9B36DD1E9D}
  9
$VERSIONGUID
  2
{EEA2CC36-EFE5-4805-BB86-F57240D9D526}
  9
$EXTNAMES
290
1
  9
$PSVPSCALE
 40
0.0
  9
$OLESTARTUP
290
0
  9
$SORTENTS
280
127
  9
$INDEXCTL
280
0
  9
$HIDETEXT
280
1
  9
$XCLIPFRAME
280
1
  9
$HALOGAP
280
0
  9
$OBSCOLOR
 70
257
  9
$OBSLTYPE
280
0
  9
$INTERSECTIONDISPLAY
280
0
  9
$INTERSECTIONCOLOR
 70
257
  9
$DIMASSOC
280
2
  9
$PROJECTNAME
  1

  9
$CAMERADISPLAY
290
0
  9
$LENSLENGTH
 40
50.0
  9
$CAMERAHEIGHT
 40
0.0
  9
$STEPSPERSEC
 40
24.0
  9
$STEPSIZE
 40
100.0
  9
$3DDWFPREC
 40
2.0
  9
$PSOLWIDTH
 40
0.005
  9
$PSOLHEIGHT
 40
0.08
  9
$LOFTANG1
 40
1.570796326795
  9
$LOFTANG2
 40
1.570796326795
  9
$LOFTMAG1
 40
0.0
  9
$LOFTMAG2
 40
0.0
  9
$LOFTPARAM
 70
7
  9
$LOFTNORMALS
280
1
  9
$LATITUDE
 40
37.795
  9
$LONGITUDE
 40
-122.394
  9
$NORTHDIRECTION
 40
0.0
  9
$TIMEZONE
 70
-8000
  9
$LIGHTGLYPHDISPLAY
280
1
  9
$TILEMODELIGHTSYNCH
280
1
  9
$CMATERIAL
347
20
  9
$SOLIDHIST
280
0
  9
$SHOWHIST
280
1
  9
$DWFFRAME
280
2
  9
$DGNFRAME
280
2
  9
$REALWORLDSCALE
290
1
  9
$INTERFERECOLOR
 62
256
  9
$CSHADOW
280
0
  9
$SHADOWPLANELOCATION
 40
0.0
  0
ENDSEC
  0
SECTION
  2
CLASSES
  0
CLASS
  1
ACDBDICTIONARYWDFLT
  2
AcDbDictionaryWithDefault
  3
ObjectDBX Classes
 90
0
 91
0
280
0
281
0
  0
CLASS
  1
SUN
  2
AcDbSun
  3
SCENEOE
 90
1153
 91
0
280
0
281
0
  0
CLASS
  1
VISUALSTYLE
  2
AcDbVisualStyle
  3
ObjectDBX Classes
 90
4095
 91
0
280
0
281
0
  0
CLASS
  1
MATERIAL
  2
AcDbMaterial
  3
ObjectDBX Classes
 90
1153
 91
0
280
0
281
0
  0
CLASS
  1
SCALE
  2
AcDbScale
  3
ObjectDBX Classes
 90
1153
 91
0
280
0
281
0
  0
CLASS
  1
TABLESTYLE
  2
AcDbTableStyle
  3
ObjectDBX Classes
 90
4095
 91
0
280
0
281
0
  0
CLASS
  1
MLEADERSTYLE
  2
AcDbMLeaderStyle
  3
ACDB_MLEADERSTYLE_CLASS
 90
4095
 91
0
280
0
281
0
  0
CLASS
  1
DICTIONARYVAR
  2
AcDbDictionaryVar
  3
ObjectDBX Classes
 90
0
 91
0
280
0
281
0
  0
CLASS
  1
CELLSTYLEMAP
  2
AcDbCellStyleMap
  3
ObjectDBX Classes
 90
1152
 91
0
280
0
281
0
  0
CLASS
  1
MENTALRAYRENDERSETTINGS
  2
AcDbMentalRayRenderSettings
  3
SCENEOE
 90
1024
 91
0
280
0
281
0
  0
CLASS
  1
ACDBDETAILVIEWSTYLE
  2
AcDbDetailViewStyle
  3
ObjectDBX Classes
 90
1025
 91
0
280
0
281
0
  0
CLASS
  1
ACDBSECTIONVIEWSTYLE
  2
AcDbSectionViewStyle
  3
ObjectDBX Classes
 90
1025
 91
0
280
0
281
0
  0
CLASS
  1
RASTERVARIABLES
  2
AcDbRasterVariables
  3
ISM
 90
0
 91
0
280
0
281
0
  0
CLASS
  1
LAYOUT
  2
AcDbLayout
  3
ObjectDBX Classes
 90
0
 91
0
280
0
281
0
  0
CLASS
  1
ACDBPLACEHOLDER
  2
AcDbPlaceHolder
  3
ObjectDBX Classes
 90
0
 91
0
280
0
281
0
  0
ENDSEC
  0
SECTION
  2
TABLES
  0
TABLE
  2
VPORT
  5
8
330
0
100
AcDbSymbolTable
 70
1
  0
VPORT
  5
23
330
8
100
AcDbSymbolTableRecord
100
AcDbViewportTableRecord
  2
*Active
 70
0
 10
0.0
 20
0.0
 11
1.0
 21
1.0
 12
0.0
 22
0.0
 13
0.0
 23
0.0
 14
0.5
 24
0.5
 15
0.5
 25
0.5
 16
0.0
 26
0.0
 36
1.0
 17
0.0
 27
0.0
 37
0.0
 40
1000.0
 41
1.34
 42
50.0
 43
0.0
 44
0.0
 50
0.0
 51
0.0
 71
0
 72
1000
 73
1
 74
3
 75
0
 76
0
 77
0
 78
0
281
0
 65
0
146
0.0
  0
ENDTAB
  0
TABLE
  2
LTYPE
  5
2
330
0
100
AcDbSymbolTable
 70
3
  0
LTYPE
  5
24
330
2
100
AcDbSymbolTableRecord
100
AcDbLinetypeTableRecord
  2
ByBlock
 70
0
  3

 72
65
 73
0
 40
0.0
  0
LTYPE
  5
25
330
2
100
AcDbSymbolTableRecord
100
AcDbLinetypeTableRecord
  2
ByLayer
 70
0
  3

 72
65
 73
0
 40
0.0
  0
LTYPE
  5
26
330
2
100
AcDbSymbolTableRecord
100
AcDbLinetypeTableRecord
  2
Continuous
 70
0
  3

 72
65
 73
0
 40
0.0
  0
ENDTAB
  0
TABLE
  2
LAYER
  5
1
330
0
100
AcDbSymbolTable
 70
6
  0
LAYER
  5
27
330
1
100
AcDbSymbolTableRecord
100
AcDbLayerTableRecord
  2
0
 70
0
 62
7
  6
Continuous
370
-3
390
13
347
21
  0
LAYER
  5
28
330
1
100
AcDbSymbolTableRecord
100
AcDbLayerTableRecord
  2
Defpoints
 70
0
 62
7
  6
Continuous
290
0
370
-3
390
13
347
21
  0
LAYER
  5
2F
330
1
100
AcDbSymbolTableRecord
100
AcDbLayerTableRecord
  2
APERTURE
 70
0
 62
7
  6
Continuous
370
-3
390
13
347
21
  0
LAYER
  5
30
330
1
100
AcDbSymbolTableRecord
100
AcDbLayerTableRecord
  2
IMPLANTS
 70
0
 62
7
  6
Continuous
370
-3
390
13
347
21
  0
LAYER
  5
31
330
1
100
AcDbSymbolTableRecord
100
AcDbLayerTableRecord
  2
MESA
 70
0
 62
7
  6
Continuous
370
-3
390
13
347
21
  0
LAYER
  5
32
330
1
100
AcDbSymbolTableRecord
100
AcDbLayerTableRecord
  2
CONTACTS
 70
0
 62
7
  6
Continuous
370
-3
390
13
347
21
  0
ENDTAB
  0
TABLE
  2
STYLE
  5
5
330
0
100
AcDbSymbolTable
 70
1
  0
STYLE
  5
29
330
5
100
AcDbSymbolTableRecord
100
AcDbTextStyleTableRecord
  2
Standard
 70
0
 40
0.0
 41
1.0
 50
0.0
 71
0
 42
2.5
  3
txt
  4

  0
ENDTAB
  0
TABLE
  2
VIEW
  5
7
330
0
100
AcDbSymbolTable
 70
0
  0
ENDTAB
  0
TABLE
  2
UCS
  5
6
330
0
100
AcDbSymbolTable
 70
0
  0
ENDTAB
  0
TABLE
  2
APPID
  5
3
330
0
100
AcDbSymbolTable
 70
3
  0
APPID
  5
2A
330
3
100
AcDbSymbolTableRecord
100
AcDbRegAppTableRecord
  2
ACAD
 70
0
  0
APPID
  5
39
330
3
100
AcDbSymbolTableRecord
100
AcDbRegAppTableRecord
  2
HATCHBACKGROUNDCOLOR
 70
0
  0
APPID
  5
3A
330
3
100
AcDbSymbolTableRecord
100
AcDbRegAppTableRecord
  2
EZDXF
 70
0
  0
ENDTAB
  0
TABLE
  2
DIMSTYLE
  5
4
330
0
100
AcDbSymbolTable
 70
1
100
AcDbDimStyleTable
  0
DIMSTYLE
105
2B
330
4
100
AcDbSymbolTableRecord
100
AcDbDimStyleTableRecord
  2
Standard
 70
0
 40
1.0
 41
2.5
 42
0.625
 43
3.75
 44
1.25
 45
0.0
 46
0.0
 47
0.0
 48
0.0
 49
2.5
140
2.5
141
2.5
142
0.0
143
0.03937007874
144
1.0
145
0.0
146
1.0
147
0.625
148
0.0
 69
0
 70
0
 71
0
 72
0
 73
0
 74
0
 75
0
 76
0
 77
1
 78
8
 79
3
170
0
171
3
172
1
173
0
174
0
175
0
176
0
177
0
178
0
179
2
271
2
272
2
273
2
274
3
275
0
276
0
277
2
278
44
279
0
280
0
281
0
282
0
283
0
284
8
285
0
286
0
288
0
289
3
290
0
371
-2
372
-2
  0
ENDTAB
  0
TABLE
  2
BLOCK_RECORD
  5
9
330
0
100
AcDbSymbolTable
 70
2
  0
BLOCK_RECORD
  5
17
330
9
100
AcDbSymbolTableRecord
100
AcDbBlockTableRecord
  2
*Model_Space
340
1A
 70
0
280
1
281
0
  0
BLOCK_RECORD
  5
1B
330
9
100
AcDbSymbolTableRecord
100
AcDbBlockTableRecord
  2
*Paper_Space
340
1E
 70
0
280
1
281
0
  0
ENDTAB
  0
ENDSEC
  0
SECTION
  2
BLOCKS
  0
BLOCK
  5
18
330
17
100
AcDbEntity
  8
0
100
AcDbBlockBegin
  2
*Model_Space
 70
0
 10
0.0
 20
0.0
 30
0.0
  3
*Model_Space
  1

  0
ENDBLK
  5
19
330
17
100
AcDbEntity
  8
0
100
AcDbBlockEnd
  0
BLOCK
  5
1C
330
1B
100
AcDbEntity
  8
0
100
AcDbBlockBegin
  2
*Paper_Space
 70
0
 10
0.0
 20
0.0
 30
0.0
  3
*Paper_Space
  1

  0
ENDBLK
  5
1D
330
1B
100
AcDbEntity
  8
0
100
AcDbBlockEnd
  0
ENDSEC
  0
SECTION
  2
ENTITIES
  0
LWPOLYLINE
  5
33
330
17
100
AcDbEntity
  8
MESA
100
AcDbPolyline
 90
8
 70
1
 10
-3.878679656440357
 20
-10.606601717798213
 10
-14.485281374238571
 20
0.0
 10
-3.878679656440357
 20
10.606601717798213
 10
0.0
 20
6.727922061357856
 10
3.878679656440357
 20
10.606601717798213
 10
14.485281374238571
 20
0.0
 10
3.878679656440357
 20
-10.606601717798213
 10
0.0
 20
-6.727922061357856
  0
LWPOLYLINE
  5
34
330
17
100
AcDbEntity
  8
CONTACTS
100
AcDbPolyline
 90
92
 70
1
 10
-2.0
 20
2.1454871767084853
 10
-2.057559100562037
 20
2.1709337888712184
 10
-2.128883325384186
 20
2.2038147068858636
 10
-2.199682280100931
 20
2.237811880694538
 10
-2.2699384961296105
 20
2.272916922003329
 10
-2.3396346388001947
 20
2.3091211691685865
 10
-2.408753511632344
 20
2.346415689334045
 10
-2.477278060578465
 20
2.384791280634922
 10
-2.545191378231455
 20
2.4242384744682868
 10
-2.612476707996374
 20
2.4647475378293113
 10
-2.679117448224911
 20
2.5063084757127605
 10
-2.745097156311597
 20
2.548911033579108
 10
-2.810399552750764
 20
2.5925446998846975
 10
-2.8750085251531736
 20
2.637198708675231
 10
-2.9389081322216755
 20
2.6828620422422302
 10
-3.0020826076843963
 20
2.729523433841428
 10
-3.064516364184778
 20
2.7771713704726273
 10
-3.1261939971276544
 20
2.825794095720463
 10
-3.1871002884799777
 20
2.875379612655019
 10
-3.219452696236405
 20
2.902574652522892
 10
-3.298229610904107
 20
2.962402097722805
 10
-3.3825319799562155
 20
3.0141537745643623
 10
-3.471534894132982
 20
3.0573232863956776
 10
-3.56436744875077
 20
3.091488214126411
 10
-3.6601212656136726
 20
3.1163142496515746
 10
-3.7578593816081405
 20
3.1315584670982926
 10
-3.856625417004627
 20
3.137071699885947
 10
-3.955452933753249
 20
3.132800000339891
 10
-4.0533748922013775
 20
3.1187851675762097
 10
-4.149433113697986
 20
3.0951643384921304
 10
-4.24268765649199
 20
3.0621686458642694
 10
-4.332226013180223
 20
3.020120956685412
 10
-4.417172039706884
 20
2.9694327128704745
 10
-4.496694528543069
 20
2.910599905245734
 10
-4.570015342156738
 20
2.8441982202163576
 10
-6.70710678118655
 20
0.7071067811865476
 10
-6.773010453362739
 20
0.6343932841636452
 10
-6.831469612302547
 20
0.5555702330196022
 10
-6.881921264348357
 20
0.4713967368259974
 10
-6.923879532511289
 20
0.38268343236508945
 10
-6.95694033573221
 20
0.2902846772544624
 10
-6.980785280403232
 20
0.19509032201612816
 10
-6.995184726672199
 20
0.0980171403295604
 10
-7.000000000000002
 20
1.2246467991473532e-16
 10
-6.995184726672199
 20
-0.09801714032956015
 10
-6.980785280403232
 20
-0.19509032201612792
 10
-6.95694033573221
 20
-0.2902846772544621
 10
-6.923879532511289
 20
-0.3826834323650892
 10
-6.881921264348357
 20
-0.47139673682599725
 10
-6.831469612302548
 20
-0.555570233019602
 10
-6.7730104533627395
 20
-0.6343932841636449
 10
-6.70710678118655
 20
-0.7071067811865476
 10
-4.570015342156738
 20
-2.8441982202163576
 10
-4.496694528543069
 20
-2.9105999052457343
 10
-4.417172039706884
 20
-2.9694327128704745
 10
-4.332226013180222
 20
-3.020120956685412
 10
-4.24268765649199
 20
-3.0621686458642694
 10
-4.149433113697986
 20
-3.0951643384921304
 10
-4.053374892201377
 20
-3.1187851675762097
 10
-3.9554529337532487
 20
-3.132800000339891
 10
-3.856625417004627
 20
-3.137071699885947
 10
-3.7578593816081405
 20
-3.1315584670982926
 10
-3.6601212656136726
 20
-3.1163142496515746
 10
-3.56436744875077
 20
-3.091488214126411
 10
-3.4715348941329816
 20
-3.057323286395677
 10
-3.382531979956215
 20
-3.0141537745643623
 10
-3.298229610904107
 20
-2.962402097722805
 10
-3.219452696236405
 20
-2.902574652522892
 10
-3.1871002884799777
 20
-2.875379612655019
 10
-3.1261939971276544
 20
-2.825794095720463
 10
-3.064516364184778
 20
-2.7771713704726273
 10
-3.0020826076843963
 20
-2.729523433841428
 10
-2.9389081322216755
 20
-2.6828620422422302
 10
-2.8750085251531736
 20
-2.637198708675231
 10
-2.810399552750759
 20
-2.5925446998846935
 10
-2.7450971563116
 20
-2.54891103357911
 10
-2.679117448224904
 20
-2.5063084757127547
 10
-2.6124767079963997
 20
-2.4647475378293273
 10
-2.5451913782314532
 20
-2.4242384744682854
 10
-2.4772780605784632
 20
-2.384791280634921
 10
-2.4087535116323506
 20
-2.3464156893340484
 10
-2.3396346388001947
 20
-2.3091211691685865
 10
-2.2699384961296105
 20
-2.272916922003329
 10
-2.199682280100931
 20
-2.237811880694538
 10
-2.128883325384186
 20
-2.2038147068858636
 10
-2.0575591005620413
 20
-2.1709337888712206
 10
-2.0
 20
-2.145487176708485
 10
-2.0
 20
-7.313708498984761
 10
-3.8786796564403567
 20
-9.192388155425117
 10
-13.071067811865476
 20
0.0
 10
-3.8786796564403567
 20
9.192388155425117
 10
-2.0
 20
7.313708498984761
  0
LWPOLYLINE
  5
35
330
17
100
AcDbEntity
  8
CONTACTS
100
AcDbPolyline
 90
92
 70
1
 10
3.8786796564403567
 20
-9.192388155425117
 10
2.0
 20
-7.313708498984761
 10
2.0
 20
-2.1454871767084858
 10
2.0575591005620657
 20
-2.170933788871232
 10
2.1288833253841632
 20
-2.2038147068858525
 10
2.1996822801009275
 20
-2.237811880694537
 10
2.269938496129621
 20
-2.2729169220033354
 10
2.3396346388001765
 20
-2.3091211691685767
 10
2.4087535116323706
 20
-2.3464156893340595
 10
2.4772780605784597
 20
-2.3847912806349187
 10
2.5451913782314586
 20
-2.424238474468289
 10
2.612476707996375
 20
-2.464747537829312
 10
2.67911744822492
 20
-2.5063084757127663
 10
2.745097156311603
 20
-2.5489110335791128
 10
2.8103995527507806
 20
-2.5925446998847077
 10
2.8750085251531807
 20
-2.637198708675236
 10
2.9389081322216666
 20
-2.6828620422422236
 10
3.0020826076843936
 20
-2.729523433841426
 10
3.0645163641847786
 20
-2.777171370472627
 10
3.1261939971276456
 20
-2.8257940957204557
 10
3.1871002884799777
 20
-2.875379612655019
 10
3.219452696236405
 20
-2.902574652522892
 10
3.2982296109041065
 20
-2.9624020977228045
 10
3.3825319799562155
 20
-3.0141537745643623
 10
3.4715348941329816
 20
-3.057323286395677
 10
3.56436744875077
 20
-3.091488214126411
 10
3.660121265613672
 20
-3.1163142496515746
 10
3.7578593816081405
 20
-3.1315584670982926
 10
3.856625417004627
 20
-3.137071699885947
 10
3.9554529337532487
 20
-3.132800000339891
 10
4.0533748922013775
 20
-3.1187851675762097
 10
4.149433113697986
 20
-3.0951643384921304
 10
4.24268765649199
 20
-3.0621686458642694
 10
4.332226013180223
 20
-3.020120956685412
 10
4.417172039706884
 20
-2.9694327128704745
 10
4.4966945285430695
 20
-2.910599905245734
 10
4.570015342156738
 20
-2.8441982202163576
 10
6.70710678118655
 20
-0.7071067811865476
 10
6.773010453362739
 20
-0.6343932841636453
 10
6.831469612302548
 20
-0.555570233019602
 10
6.881921264348357
 20
-0.4713967368259974
 10
6.923879532511289
 20
-0.38268343236508945
 10
6.95694033573221
 20
-0.29028467725446216
 10
6.980785280403232
 20
-0.19509032201612816
 10
6.995184726672199
 20
-0.09801714032956049
 10
7.000000000000002
 20
1.1102230246251565e-16
 10
6.995184726672199
 20
0.09801714032956071
 10
6.980785280403232
 20
0.19509032201612836
 10
6.95694033573221
 20
0.29028467725446233
 10
6.923879532511289
 20
0.3826834323650898
 10
6.881921264348357
 20
0.47139673682599764
 10
6.831469612302547
 20
0.5555702330196022
 10
6.773010453362739
 20
0.6343932841636454
 10
6.70710678118655
 20
0.7071067811865477
 10
4.570015342156739
 20
2.8441982202163576
 10
4.49669452854307
 20
2.910599905245733
 10
4.417172039706886
 20
2.969432712870473
 10
4.332226013180225
 20
3.0201209566854104
 10
4.242687656491993
 20
3.0621686458642676
 10
4.149433113697992
 20
3.0951643384921286
 10
4.053374892201383
 20
3.1187851675762084
 10
3.955452933753256
 20
3.1328000003398895
 10
3.856625417004635
 20
3.1370716998859467
 10
3.7578593816081494
 20
3.131558467098293
 10
3.660121265613682
 20
3.116314249651576
 10
3.564367448750781
 20
3.0914882141264135
 10
3.4715348941329927
 20
3.0573232863956816
 10
3.3825319799562266
 20
3.0141537745643676
 10
3.2982296109041185
 20
2.962402097722812
 10
3.2194526962364165
 20
2.902574652522901
 10
3.187100288479987
 20
2.875379612655027
 10
3.126193997127635
 20
2.8257940957204477
 10
3.064516364184771
 20
2.7771713704726215
 10
3.0020826076843976
 20
2.729523433841429
 10
2.9389081322216835
 20
2.6828620422422365
 10
2.875008525153173
 20
2.63719870867523
 10
2.81039955275077
 20
2.5925446998847006
 10
2.745097156311601
 20
2.5489110335791114
 10
2.6791174482249205
 20
2.506308475712766
 10
2.612476707996361
 20
2.464747537829304
 10
2.5451913782314444
 20
2.4242384744682806
 10
2.4772780605784934
 20
2.3847912806349383
 10
2.4087535116323338
 20
2.3464156893340395
 10
2.339634638800205
 20
2.309121169168592
 10
2.269938496129619
 20
2.272916922003334
 10
2.199682280100922
 20
2.2378118806945344
 10
2.1288833253841752
 20
2.2038147068858582
 10
2.057559100562046
 20
2.1709337888712232
 10
2.0
 20
2.1454871767084858
 10
2.0
 20
7.313708498984761
 10
3.8786796564403567
 20
9.192388155425117
 10
13.071067811865476
 20
0.0
  0
LWPOLYLINE
  5
36
330
17
100
AcDbEntity
  8
IMPLANTS
100
AcDbPolyline
 90
5
 70
1
 10
-14.485281374238571
 20
0.0
 10
-3.878679656440357
 20
10.606601717798213
 10
-1.0
 20
7.727922061357856
 10
-1.0
 20
-7.727922061357856
 10
-3.878679656440357
 20
-10.606601717798213
  0
LWPOLYLINE
  5
37
330
17
100
AcDbEntity
  8
IMPLANTS
100
AcDbPolyline
 90
5
 70
1
 10
3.878679656440357
 20
10.606601717798213
 10
14.485281374238571
 20
0.0
 10
3.878679656440357
 20
-10.606601717798213
 10
1.0
 20
-7.727922061357856
 10
1.0
 20
7.727922061357856
  0
LWPOLYLINE
  5
38
330
17
100
AcDbEntity
  8
APERTURE
100
AcDbPolyline
 90
184
 70
1
 10
3.862908560970191
 20
-2.13709143902981
 10
3.8245439384921385
 20
-2.10484260470312
 10
3.751455938014231
 20
-2.045339617327878
 10
3.6774423219178596
 20
-1.986991987103714
 10
3.6025213519553048
 20
-1.9298141104353137
 10
3.526711513754839
 20
-1.8738200951081714
 10
3.450031512259671
 20
-1.8190237568077157
 10
3.3725002671127835
 20
-1.7654386157104849
 10
3.2941369079887908
 20
-1.7130778931482356
 10
3.2149607698739793
 20
-1.661954508345766
 10
3.1349913882956937
 20
-1.612081075233303
 10
3.054248494502229
 20
-1.5634698993341951
 10
2.972752010594445
 20
-1.5161329747287082
 10
2.890522044610292
 20
-1.4700819810946744
 10
2.80757888556344
 20
-1.4253282808256955
 10
2.723942998437281
 20
-1.3818829162276494
 10
2.6396350191354916
 20
-1.3397566067941629
 10
2.554675749390436
 20
-1.2989597465617386
 10
2.4690861516306533
 20
-1.259502401545185
 10
2.3828873438086835
 20
-1.221394307253969
 10
2.296100594190539
 20
-1.184644866290136
 10
2.2087473161080684
 20
-1.149263146028348
 10
2.1208490626755427
 20
-1.115257876378652
 10
2.0324275214717478
 20
-1.0826374476325027
 10
1.9435045091888963
 20
-1.0514099083925847
 10
1.8541019662496847
 20
-1.0215829635869351
 10
1.7642419513938248
 20
-0.9931639725678751
 10
1.6739466362353757
 20
-0.9661599472961973
 10
1.5832382997922365
 20
-0.9405775506110681
 10
1.4921393229891284
 20
-0.9164230945860696
 10
1.4006721831354327
 20
-0.8937025389717972
 10
1.3088594483792562
 20
-0.8724214897253724
 10
1.216723772139075
 20
-0.8525851976272616
 10
1.1242878875143472
 20
-0.834198556985724
 10
1.031574601676457
 20
-0.817266104429212
 10
0.9386067902413855
 20
-0.8017920177870295
 10
0.8454073916254968
 20
-0.7877801150585109
 10
0.7519994013858255
 20
-0.775233853470989
 10
0.6584058665462709
 20
-0.7641563286267781
 10
0.5646498799110857
 20
-0.7545502737393761
 10
0.47075457436707
 20
-0.7464180589590885
 10
0.37674311717588116
 20
-0.7397616907882272
 10
0.2826387042578561
 20
-0.7345828115860362
 10
0.18846455446876903
 20
-0.7308826991634669
 10
0.09424390387092388
 20
-0.7286622664678921
 10
3.6739403974420594e-16
 20
-0.7279220613578561
 10
-0.09424390387092316
 20
-0.7286622664678921
 10
-0.18846455446876967
 20
-0.7308826991634669
 10
-0.28263870425785664
 20
-0.7345828115860362
 10
-0.3767431171758804
 20
-0.7397616907882272
 10
-0.47075457436706925
 20
-0.7464180589590885
 10
-0.5646498799110863
 20
-0.7545502737393761
 10
-0.6584058665462714
 20
-0.7641563286267781
 10
-0.7519994013858262
 20
-0.775233853470989
 10
-0.8454073916254962
 20
-0.7877801150585109
 10
-0.9386067902413848
 20
-0.8017920177870295
 10
-1.0315746016764575
 20
-0.8172661044292129
 10
-1.1242878875143476
 20
-0.834198556985724
 10
-1.2167237721390753
 20
-0.8525851976272616
 10
-1.3088594483792555
 20
-0.8724214897253715
 10
-1.400672183135432
 20
-0.8937025389717963
 10
-1.492139322989129
 20
-0.9164230945860696
 10
-1.5832382997922372
 20
-0.9405775506110681
 10
-1.6739466362353759
 20
-0.9661599472961973
 10
-1.7642419513938237
 20
-0.9931639725678751
 10
-1.854101966249684
 20
-1.0215829635869342
 10
-1.9435045091888967
 20
-1.0514099083925847
 10
-2.032427521471748
 20
-1.0826374476325036
 10
-2.120849062675543
 20
-1.115257876378652
 10
-2.208747316108068
 20
-1.1492631460283471
 10
-2.2961005941905386
 20
-1.184644866290136
 10
-2.382887343808684
 20
-1.221394307253969
 10
-2.469086151630653
 20
-1.2595024015451841
 10
-2.5546757493904364
 20
-1.2989597465617395
 10
-2.6396350191354907
 20
-1.339756606794162
 10
-2.7239429984372805
 20
-1.3818829162276485
 10
-2.8075788855634394
 20
-1.4253282808256955
 10
-2.8905220446102904
 20
-1.4700819810946735
 10
-2.9727520105944456
 20
-1.5161329747287091
 10
-3.054248494502228
 20
-1.5634698993341942
 10
-3.1349913882956946
 20
-1.612081075233304
 10
-3.214960769873981
 20
-1.661954508345766
 10
-3.2941369079887917
 20
-1.7130778931482356
 10
-3.372500267112784
 20
-1.7654386157104858
 10
-3.450031512259671
 20
-1.8190237568077157
 10
-3.5267115137548384
 20
-1.8738200951081714
 10
-3.6025213519553034
 20
-1.9298141104353128
 10
-3.677442321917858
 20
-1.9869919871037132
 10
-3.751455938014231
 20
-2.045339617327878
 10
-3.8245439384921385
 20
-2.10484260470312
 10
-3.862908560970191
 20
-2.13709143902981
 10
-6.000000000000002
 20
0.0
 10
-3.862908560970191
 20
2.13709143902981
 10
-3.8245439384921385
 20
2.10484260470312
 10
-3.751455938014231
 20
2.045339617327878
 10
-3.677442321917858
 20
1.9869919871037132
 10
-3.6025213519553034
 20
1.9298141104353128
 10
-3.5267115137548384
 20
1.8738200951081714
 10
-3.450031512259671
 20
1.8190237568077157
 10
-3.372500267112784
 20
1.7654386157104858
 10
-3.2941369079887894
 20
1.7130778931482338
 10
-3.2149607698739784
 20
1.6619545083457652
 10
-3.134991388295693
 20
1.6120810752333021
 10
-3.054248494502228
 20
1.5634698993341942
 10
-2.9727520105944434
 20
1.5161329747287073
 10
-2.8905220446102904
 20
1.4700819810946735
 10
-2.8075788855634394
 20
1.4253282808256955
 10
-2.7239429984372805
 20
1.3818829162276485
 10
-2.6396350191354907
 20
1.339756606794162
 10
-2.5546757493904364
 20
1.2989597465617395
 10
-2.469086151630653
 20
1.2595024015451841
 10
-2.3828873438086826
 20
1.221394307253969
 10
-2.2961005941905386
 20
1.184644866290136
 10
-2.208747316108068
 20
1.1492631460283471
 10
-2.1208490626755423
 20
1.115257876378652
 10
-2.032427521471747
 20
1.0826374476325027
 10
-1.9435045091888958
 20
1.0514099083925839
 10
-1.854101966249684
 20
1.0215829635869342
 10
-1.7642419513938237
 20
0.9931639725678751
 10
-1.673946636235375
 20
0.9661599472961973
 10
-1.5832382997922358
 20
0.9405775506110672
 10
-1.4921393229891278
 20
0.9164230945860687
 10
-1.400672183135432
 20
0.8937025389717963
 10
-1.3088594483792555
 20
0.8724214897253715
 10
-1.2167237721390742
 20
0.8525851976272607
 10
-1.1242878875143463
 20
0.834198556985724
 10
-1.0315746016764562
 20
0.817266104429212
 10
-0.9386067902413848
 20
0.8017920177870295
 10
-0.8454073916254962
 20
0.7877801150585109
 10
-0.7519994013858249
 20
0.775233853470989
 10
-0.6584058665462701
 20
0.7641563286267781
 10
-0.564649879911085
 20
0.7545502737393761
 10
-0.47075457436706925
 20
0.7464180589590885
 10
-0.3767431171758804
 20
0.7397616907882272
 10
-0.2826387042578553
 20
0.7345828115860362
 10
-0.18846455446876834
 20
0.7308826991634669
 10
-0.09424390387092316
 20
0.7286622664678921
 10
3.6739403974420594e-16
 20
0.7279220613578561
 10
0.09424390387092388
 20
0.7286622664678921
 10
0.18846455446877036
 20
0.7308826991634669
 10
0.2826387042578574
 20
0.7345828115860362
 10
0.37674311717588116
 20
0.7397616907882272
 10
0.47075457436707
 20
0.7464180589590885
 10
0.5646498799110871
 20
0.7545502737393761
 10
0.6584058665462722
 20
0.7641563286267781
 10
0.7519994013858269
 20
0.775233853470989
 10
0.8454073916254968
 20
0.7877801150585109
 10
0.9386067902413855
 20
0.8017920177870295
 10
1.0315746016764584
 20
0.8172661044292129
 10
1.1242878875143485
 20
0.8341985569857249
 10
1.2167237721390762
 20
0.8525851976272616
 10
1.3088594483792562
 20
0.8724214897253724
 10
1.4006721831354327
 20
0.8937025389717972
 10
1.4921393229891298
 20
0.9164230945860696
 10
1.5832382997922378
 20
0.9405775506110681
 10
1.673946636235377
 20
0.9661599472961981
 10
1.7642419513938248
 20
0.9931639725678751
 10
1.8541019662496847
 20
1.0215829635869351
 10
1.9435045091888974
 20
1.0514099083925847
 10
2.0324275214717487
 20
1.0826374476325036
 10
2.1208490626755436
 20
1.115257876378652
 10
2.2087473161080684
 20
1.149263146028348
 10
2.296100594190539
 20
1.184644866290136
 10
2.382887343808685
 20
1.22139430725397
 10
2.4690861516306533
 20
1.259502401545185
 10
2.554675749390437
 20
1.2989597465617395
 10
2.6396350191354916
 20
1.3397566067941629
 10
2.723942998437281
 20
1.3818829162276494
 10
2.807578885563441
 20
1.4253282808256964
 10
2.890522044610292
 20
1.4700819810946744
 10
2.972752010594446
 20
1.5161329747287091
 10
3.054248494502229
 20
1.5634698993341951
 10
3.1349913882956946
 20
1.612081075233304
 10
3.2149607698739806
 20
1.661954508345766
 10
3.2941369079887908
 20
1.7130778931482356
 10
3.372500267112785
 20
1.7654386157104858
 10
3.450031512259672
 20
1.8190237568077157
 10
3.52671151375484
 20
1.8738200951081732
 10
3.6025213519553048
 20
1.9298141104353137
 10
3.6774423219178596
 20
1.986991987103714
 10
3.7514559380142316
 20
2.045339617327879
 10
3.8245439384921394
 20
2.104842604703121
 10
3.8629085609701916
 20
2.1370914390298097
 10
6.000000000000002
 20
0.0
  0
ENDSEC
  0
SECTION
  2
OBJECTS
  0
DICTIONARY
  5
A
330
0
100
AcDbDictionary
281
1
  3
ACAD_COLOR
350
B
  3
ACAD_GROUP
350
C
  3
ACAD_LAYOUT
350
D
  3
ACAD_MATERIAL
350
E
  3
ACAD_MLEADERSTYLE
350
F
  3
ACAD_MLINESTYLE
350
10
  3
ACAD_PLOTSETTINGS
350
11
  3
ACAD_PLOTSTYLENAME
350
12
  3
ACAD_SCALELIST
350
14
  3
ACAD_TABLESTYLE
350
15
  3
ACAD_VISUALSTYLE
350
16
  3
EZDXF_META
350
2D
  0
DICTIONARY
  5
B
330
A
100
AcDbDictionary
281
1
  0
DICTIONARY
  5
C
330
A
100
AcDbDictionary
281
1
  0
DICTIONARY
  5
D
330
A
100
AcDbDictionary
281
1
  3
Model
350
1A
  3
Layout1
350
1E
  0
DICTIONARY
  5
E
330
A
100
AcDbDictionary
281
1
  3
ByBlock
350
1F
  3
ByLayer
350
20
  3
Global
350
21
  0
DICTIONARY
  5
F
330
A
100
AcDbDictionary
281
1
  3
Standard
350
2C
  0
DICTIONARY
  5
10
330
A
100
AcDbDictionary
281
1
  3
Standard
350
22
  0
DICTIONARY
  5
11
330
A
100
AcDbDictionary
281
1
  0
ACDBDICTIONARYWDFLT
  5
12
330
A
100
AcDbDictionary
281
1
  3
Normal
350
13
100
AcDbDictionaryWithDefault
340
13
  0
ACDBPLACEHOLDER
  5
13
330
12
  0
DICTIONARY
  5
14
330
A
100
AcDbDictionary
281
1
  0
DICTIONARY
  5
15
330
A
100
AcDbDictionary
281
1
  0
DICTIONARY
  5
16
330
A
100
AcDbDictionary
281
1
  0
LAYOUT
  5
1A
330
D
100
AcDbPlotSettings
  1

  4
A3
  6

 40
7.5
 41
20.0
 42
7.5
 43
20.0
 44
420.0
 45
297.0
 46
0.0
 47
0.0
 48
0.0
 49
0.0
140
0.0
141
0.0
142
1.0
143
1.0
 70
1024
 72
1
 73
0
 74
5
  7

 75
16
 76
0
 77
2
 78
300
147
1.0
148
0.0
149
0.0
100
AcDbLayout
  1
Model
 70
1
 71
0
 10
0.0
 20
0.0
 11
420.0
 21
297.0
 12
0.0
 22
0.0
 32
0.0
 14
1e+20
 24
1e+20
 34
1e+20
 15
-1e+20
 25
-1e+20
 35
-1e+20
146
0.0
 13
0.0
 23
0.0
 33
0.0
 16
1.0
 26
0.0
 36
0.0
 17
0.0
 27
1.0
 37
0.0
 76
1
330
17
  0
LAYOUT
  5
1E
330
D
100
AcDbPlotSettings
  1

  4
A3
  6

 40
7.5
 41
20.0
 42
7.5
 43
20.0
 44
420.0
 45
297.0
 46
0.0
 47
0.0
 48
0.0
 49
0.0
140
0.0
141
0.0
142
1.0
143
1.0
 70
0
 72
1
 73
0
 74
5
  7

 75
16
 76
0
 77
2
 78
300
147
1.0
148
0.0
149
0.0
100
AcDbLayout
  1
Layout1
 70
1
 71
1
 10
0.0
 20
0.0
 11
420.0
 21
297.0
 12
0.0
 22
0.0
 32
0.0
 14
1e+20
 24
1e+20
 34
1e+20
 15
-1e+20
 25
-1e+20
 35
-1e+20
146
0.0
 13
0.0
 23
0.0
 33
0.0
 16
1.0
 26
0.0
 36
0.0
 17
0.0
 27
1.0
 37
0.0
 76
1
330
1B
  0
MATERIAL
  5
1F
102
{ACAD_REACTORS
330
E
102
}
330
E
100
AcDbMaterial
  1
ByBlock
  2

 70
0
 40
1.0
 71
1
 41
1.0
 91
-1023410177
 42
1.0
 72
1
  3

 73
1
 74
1
 75
1
 44
0.5
 73
0
 45
1.0
 46
1.0
 77
1
  4

 78
1
 79
1
170
1
 48
1.0
171
1
  6

172
1
173
1
174
1
140
1.0
141
1.0
175
1
  7

176
1
177
1
178
1
143
1.0
179
1
  8

270
1
271
1
272
1
145
1.0
146
1.0
273
1
  9

274
1
275
1
276
1
 42
1.0
 72
1
  3

 73
1
 74
1
 75
1
 94
63
  0
MATERIAL
  5
20
102
{ACAD_REACTORS
330
E
102
}
330
E
100
AcDbMaterial
  1
ByLayer
  2

 70
0
 40
1.0
 71
1
 41
1.0
 91
-1023410177
 42
1.0
 72
1
  3

 73
1
 74
1
 75
1
 44
0.5
 73
0
 45
1.0
 46
1.0
 77
1
  4

 78
1
 79
1
170
1
 48
1.0
171
1
  6

172
1
173
1
174
1
140
1.0
141
1.0
175
1
  7

176
1
177
1
178
1
143
1.0
179
1
  8

270
1
271
1
272
1
145
1.0
146
1.0
273
1
  9

274
1
275
1
276
1
 42
1.0
 72
1
  3

 73
1
 74
1
 75
1
 94
63
  0
MATERIAL
  5
21
102
{ACAD_REACTORS
330
E
102
}
330
E
100
AcDbMaterial
  1
Global
  2

 70
0
 40
1.0
 71
1
 41
1.0
 91
-1023410177
 42
1.0
 72
1
  3

 73
1
 74
1
 75
1
 44
0.5
 73
0
 45
1.0
 46
1.0
 77
1
  4

 78
1
 79
1
170
1
 48
1.0
171
1
  6

172
1
173
1
174
1
140
1.0
141
1.0
175
1
  7

176
1
177
1
178
1
143
1.0
179
1
  8

270
1
271
1
272
1
145
1.0
146
1.0
273
1
  9

274
1
275
1
276
1
 42
1.0
 72
1
  3

 73
1
 74
1
 75
1
 94
63
  0
MLINESTYLE
  5
22
102
{ACAD_REACTORS
330
10
102
}
330
10
100
AcDbMlineStyle
  2
Standard
 70
0
  3

 62
256
 51
90.0
 52
90.0
 71
2
 49
0.5
 62
256
  6
BYLAYER
 49
-0.5
 62
256
  6
BYLAYER
  0
MLEADERSTYLE
  5
2C
102
{ACAD_REACTORS
330
F
102
}
330
F
100
AcDbMLeaderStyle
179
2
170
2
171
1
172
0
 90
2
 40
0.0
 41
0.0
173
1
 91
-1056964608
 92
-2
290
1
 42
2.0
291
1
 43
8.0
  3
Standard
 44
4.0
300

342
29
174
1
175
1
176
0
178
1
 93
-1056964608
 45
4.0
292
0
297
0
 46
4.0
 94
-1056964608
 47
1.0
 49
1.0
140
1.0
294
1
141
0.0
177
0
142
1.0
295
0
296
0
143
3.75
271
0
272
9
273
9
  0
DICTIONARY
  5
2D
330
A
100
AcDbDictionary
280
1
281
1
  3
CREATED_BY_EZDXF
350
2E
  3
WRITTEN_BY_EZDXF
350
3B
  0
DICTIONARYVAR
  5
2E
330
2D
100
DictionaryVariables
280
0
  1
1.4.2 @ 2025-10-24T20:34:40.629892+00:00
  0
DICTIONARYVAR
  5
3B
330
2D
100
DictionaryVariables
280
0
  1
1.4.2 @ 2025-10-24T20:34:40.635400+00:00
  0
ENDSEC
  0
EOF
