  0
SECTION
  2
HEADER
  9
$ACADVER
  1
AC1024
  9
$ACADMAINTVER
 70
6
  9
$DWGCODEPAGE
  3
ANSI_1252
  9
$LASTSAVEDBY
  1
ezdxf
  9
$INSBASE
 10
0.0
 20
0.0
 30
0.0
  9
$EXTMIN
 10
1e+20
 20
1e+20
 30
1e+20
  9
$EXTMAX
 10
-1e+20
 20
-1e+20
 30
-1e+20
  9
$LIMMIN
 10
0.0
 20
0.0
  9
$LIMMAX
 10
420.0
 20
297.0
  9
$ORTHOMODE
 70
0
  9
$REGENMODE
 70
1
  9
$FILLMODE
 70
1
  9
$QTEXTMODE
 70
0
  9
$MIRRTEXT
 70
1
  9
$LTSCALE
 40
1.0
  9
$ATTMODE
 70
1
  9
$TEXTSIZE
 40
2.5
  9
$TRACEWID
 40
1.0
  9
$TEXTSTYLE
  7
Standard
  9
$CLAYER
  8
0
  9
$CELTYPE
  6
ByLayer
  9
$CECOLOR
 62
256
  9
$CELTSCALE
 40
1.0
  9
$DISPSILH
 70
0
  9
$DIMSCALE
 40
1.0
  9
$DIMASZ
 40
2.5
  9
$DIMEXO
 40
0.625
  9
$DIMDLI
 40
3.75
  9
$DIMRND
 40
0.0
  9
$DIMDLE
 40
0.0
  9
$DIMEXE
 40
1.25
  9
$DIMTP
 40
0.0
  9
$DIMTM
 40
0.0
  9
$DIMTXT
 40
2.5
  9
$DIMCEN
 40
2.5
  9
$DIMTSZ
 40
0.0
  9
$DIMTOL
 70
0
  9
$DIMLIM
 70
0
  9
$DIMTIH
 70
0
  9
$DIMTOH
 70
0
  9
$DIMSE1
 70
0
  9
$DIMSE2
 70
0
  9
$DIMTAD
 70
1
  9
$DIMZIN
 70
8
  9
$DIMBLK
  1

  9
$DIMASO
 70
1
  9
$DIMSHO
 70
1
  9
$DIMPOST
  1

  9
$DIMAPOST
  1

  9
$DIMALT
 70
0
  9
$DIMALTD
 70
3
  9
$DIMALTF
 40
0.03937007874
  9
$DIMLFAC
 40
1.0
  9
$DIMTOFL
 70
1
  9
$DIMTVP
 40
0.0
  9
$DIMTIX
 70
0
  9
$DIMSOXD
 70
0
  9
$DIMSAH
 70
0
  9
$DIMBLK1
  1

  9
$DIMBLK2
  1

  9
$DIMSTYLE
  2
ISO-25
  9
$DIMCLRD
 70
0
  9
$DIMCLRE
 70
0
  9
$DIMCLRT
 70
0
  9
$DIMTFAC
 40
1.0
  9
$DIMGAP
 40
0.625
  9
$DIMJUST
 70
0
  9
$DIMSD1
 70
0
  9
$DIMSD2
 70
0
  9
$DIMTOLJ
 70
0
  9
$DIMTZIN
 70
8
  9
$DIMALTZ
 70
0
  9
$DIMALTTZ
 70
0
  9
$DIMUPT
 70
0
  9
$DIMDEC
 70
2
  9
$DIMTDEC
 70
2
  9
$DIMALTU
 70
2
  9
$DIMALTTD
 70
3
  9
$DIMTXSTY
  7
Standard
  9
$DIMAUNIT
 70
0
  9
$DIMADEC
 70
0
  9
$DIMALTRND
 40
0.0
  9
$DIMAZIN
 70
0
  9
$DIMDSEP
 70
44
  9
$DIMATFIT
 70
3
  9
$DIMFRAC
 70
0
  9
$DIMLDRBLK
  1

  9
$DIMLUNIT
 70
2
  9
$DIMLWD
 70
-2
  9
$DIMLWE
 70
-2
  9
$DIMTMOVE
 70
0
  9
$DIMFXL
 40
1.0
  9
$DIMFXLON
 70
0
  9
$DIMJOGANG
 40
0.785398163397
  9
$DIMTFILL
 70
0
  9
$DIMTFILLCLR
 70
0
  9
$DIMARCSYM
 70
0
  9
$DIMLTYPE
  6

  9
$DIMLTEX1
  6

  9
$DIMLTEX2
  6

  9
$DIMTXTDIRECTION
 70
0
  9
$LUNITS
 70
2
  9
$LUPREC
 70
4
  9
$SKETCHINC
 40
1.0
  9
$FILLETRAD
 40
10.0
  9
$AUNITS
 70
0
  9
$AUPREC
 70
2
  9
$MENU
  1
.
  9
$ELEVATION
 40
0.0
  9
$PELEVATION
 40
0.0
  9
$THICKNESS
 40
0.0
  9
$LIMCHECK
 70
0
  9
$CHAMFERA
 40
0.0
  9
$CHAMFERB
 40
0.0
  9
$CHAMFERC
 40
0.0
  9
$CHAMFERD
 40
0.0
  9
$SKPOLY
 70
0
  9
$TDCREATE
 40
2460973.649074074
  9
$TDUCREATE
 40
2458532.153996898
  9
$TDUPDATE
 40
2460973.649074074
  9
$TDUUPDATE
 40
2458532.1544311
  9
$TDINDWG
 40
0.0
  9
$TDUSRTIMER
 40
0.0
  9
$USRTIMER
 70
1
  9
$ANGBASE
 50
0.0
  9
$ANGDIR
 70
0
  9
$PDMODE
 70
0
  9
$PDSIZE
 40
0.0
  9
$PLINEWID
 40
0.0
  9
$SPLFRAME
 70
0
  9
$SPLINETYPE
 70
6
  9
$SPLINESEGS
 70
8
  9
$HANDSEED
  5
3C
  9
$SURFTAB1
 70
6
  9
$SURFTAB2
 70
6
  9
$SURFTYPE
 70
6
  9
$SURFU
 70
6
  9
$SURFV
 70
6
  9
$UCSBASE
  2

  9
$UCSNAME
  2

  9
$UCSORG
 10
0.0
 20
0.0
 30
0.0
  9
$UCSXDIR
 10
1.0
 20
0.0
 30
0.0
  9
$UCSYDIR
 10
0.0
 20
1.0
 30
0.0
  9
$UCSORTHOREF
  2

  9
$UCSORTHOVIEW
 70
0
  9
$UCSORGTOP
 10
0.0
 20
0.0
 30
0.0
  9
$UCSORGBOTTOM
 10
0.0
 20
0.0
 30
0.0
  9
$UCSORGLEFT
 10
0.0
 20
0.0
 30
0.0
  9
$UCSORGRIGHT
 10
0.0
 20
0.0
 30
0.0
  9
$UCSORGFRONT
 10
0.0
 20
0.0
 30
0.0
  9
$UCSORGBACK
 10
0.0
 20
0.0
 30
0.0
  9
$PUCSBASE
  2

  9
$PUCSNAME
  2

  9
$PUCSORG
 10
0.0
 20
0.0
 30
0.0
  9
$PUCSXDIR
 10
1.0
 20
0.0
 30
0.0
  9
$PUCSYDIR
 10
0.0
 20
1.0
 30
0.0
  9
$PUCSORTHOREF
  2

  9
$PUCSORTHOVIEW
 70
0
  9
$PUCSORGTOP
 10
0.0
 20
0.0
 30
0.0
  9
$PUCSORGBOTTOM
 10
0.0
 20
0.0
 30
0.0
  9
$PUCSORGLEFT
 10
0.0
 20
0.0
 30
0.0
  9
$PUCSORGRIGHT
 10
0.0
 20
0.0
 30
0.0
  9
$PUCSORGFRONT
 10
0.0
 20
0.0
 30
0.0
  9
$PUCSORGBACK
 10
0.0
 20
0.0
 30
0.0
  9
$USERI1
 70
0
  9
$USERI2
 70
0
  9
$USERI3
 70
0
  9
$USERI4
 70
0
  9
$USERI5
 70
0
  9
$USERR1
 40
0.0
  9
$USERR2
 40
0.0
  9
$USERR3
 40
0.0
  9
$USERR4
 40
0.0
  9
$USERR5
 40
0.0
  9
$WORLDVIEW
 70
1
  9
$SHADEDGE
 70
3
  9
$SHADEDIF
 70
70
  9
$TILEMODE
 70
1
  9
$MAXACTVP
 70
64
  9
$PINSBASE
 10
0.0
 20
0.0
 30
0.0
  9
$PLIMCHECK
 70
0
  9
$PEXTMIN
 10
1e+20
 20
1e+20
 30
1e+20
  9
$PEXTMAX
 10
-1e+20
 20
-1e+20
 30
-1e+20
  9
$PLIMMIN
 10
0.0
 20
0.0
  9
$PLIMMAX
 10
420.0
 20
297.0
  9
$UNITMODE
 70
0
  9
$VISRETAIN
 70
1
  9
$PLINEGEN
 70
0
  9
$PSLTSCALE
 70
1
  9
$TREEDEPTH
 70
3020
  9
$CMLSTYLE
  2
Standard
  9
$CMLJUST
 70
0
  9
$CMLSCALE
 40
20.0
  9
$PROXYGRAPHICS
 70
1
  9
$MEASUREMENT
 70
1
  9
$CELWEIGHT
370
-1
  9
$ENDCAPS
280
0
  9
$JOINSTYLE
280
0
  9
$LWDISPLAY
290
0
  9
$INSUNITS
 70
6
  9
$HYPERLINKBASE
  1

  9
$STYLESHEET
  1

  9
$XEDIT
290
1
  9
$CEPSNTYPE
380
0
  9
$PSTYLEMODE
290
1
  9
$FINGERPRINTGUID
  2
{BF496CEC-A61F-4901-9D7D-C63E18A80931}
  9
$VERSIONGUID
  2
{31833BC0-157A-48A7-A549-5DC33BC7A95D}
  9
$EXTNAMES
290
1
  9
$PSVPSCALE
 40
0.0
  9
$OLESTARTUP
290
0
  9
$SORTENTS
280
127
  9
$INDEXCTL
280
0
  9
$HIDETEXT
280
1
  9
$XCLIPFRAME
280
1
  9
$HALOGAP
280
0
  9
$OBSCOLOR
 70
257
  9
$OBSLTYPE
280
0
  9
$INTERSECTIONDISPLAY
280
0
  9
$INTERSECTIONCOLOR
 70
257
  9
$DIMASSOC
280
2
  9
$PROJECTNAME
  1

  9
$CAMERADISPLAY
290
0
  9
$LENSLENGTH
 40
50.0
  9
$CAMERAHEIGHT
 40
0.0
  9
$STEPSPERSEC
 40
24.0
  9
$STEPSIZE
 40
100.0
  9
$3DDWFPREC
 40
2.0
  9
$PSOLWIDTH
 40
0.005
  9
$PSOLHEIGHT
 40
0.08
  9
$LOFTANG1
 40
1.570796326795
  9
$LOFTANG2
 40
1.570796326795
  9
$LOFTMAG1
 40
0.0
  9
$LOFTMAG2
 40
0.0
  9
$LOFTPARAM
 70
7
  9
$LOFTNORMALS
280
1
  9
$LATITUDE
 40
37.795
  9
$LONGITUDE
 40
-122.394
  9
$NORTHDIRECTION
 40
0.0
  9
$TIMEZONE
 70
-8000
  9
$LIGHTGLYPHDISPLAY
280
1
  9
$TILEMODELIGHTSYNCH
280
1
  9
$CMATERIAL
347
20
  9
$SOLIDHIST
280
0
  9
$SHOWHIST
280
1
  9
$DWFFRAME
280
2
  9
$DGNFRAME
280
2
  9
$REALWORLDSCALE
290
1
  9
$INTERFERECOLOR
 62
256
  9
$CSHADOW
280
0
  9
$SHADOWPLANELOCATION
 40
0.0
  0
ENDSEC
  0
SECTION
  2
CLASSES
  0
CLASS
  1
ACDBDICTIONARYWDFLT
  2
AcDbDictionaryWithDefault
  3
ObjectDBX Classes
 90
0
 91
0
280
0
281
0
  0
CLASS
  1
SUN
  2
AcDbSun
  3
SCENEOE
 90
1153
 91
0
280
0
281
0
  0
CLASS
  1
VISUALSTYLE
  2
AcDbVisualStyle
  3
ObjectDBX Classes
 90
4095
 91
0
280
0
281
0
  0
CLASS
  1
MATERIAL
  2
AcDbMaterial
  3
ObjectDBX Classes
 90
1153
 91
0
280
0
281
0
  0
CLASS
  1
SCALE
  2
AcDbScale
  3
ObjectDBX Classes
 90
1153
 91
0
280
0
281
0
  0
CLASS
  1
TABLESTYLE
  2
AcDbTableStyle
  3
ObjectDBX Classes
 90
4095
 91
0
280
0
281
0
  0
CLASS
  1
MLEADERSTYLE
  2
AcDbMLeaderStyle
  3
ACDB_MLEADERSTYLE_CLASS
 90
4095
 91
0
280
0
281
0
  0
CLASS
  1
DICTIONARYVAR
  2
AcDbDictionaryVar
  3
ObjectDBX Classes
 90
0
 91
0
280
0
281
0
  0
CLASS
  1
CELLSTYLEMAP
  2
AcDbCellStyleMap
  3
ObjectDBX Classes
 90
1152
 91
0
280
0
281
0
  0
CLASS
  1
MENTALRAYRENDERSETTINGS
  2
AcDbMentalRayRenderSettings
  3
SCENEOE
 90
1024
 91
0
280
0
281
0
  0
CLASS
  1
ACDBDETAILVIEWSTYLE
  2
AcDbDetailViewStyle
  3
ObjectDBX Classes
 90
1025
 91
0
280
0
281
0
  0
CLASS
  1
ACDBSECTIONVIEWSTYLE
  2
AcDbSectionViewStyle
  3
ObjectDBX Classes
 90
1025
 91
0
280
0
281
0
  0
CLASS
  1
RASTERVARIABLES
  2
AcDbRasterVariables
  3
ISM
 90
0
 91
0
280
0
281
0
  0
CLASS
  1
LAYOUT
  2
AcDbLayout
  3
ObjectDBX Classes
 90
0
 91
0
280
0
281
0
  0
CLASS
  1
ACDBPLACEHOLDER
  2
AcDbPlaceHolder
  3
ObjectDBX Classes
 90
0
 91
0
280
0
281
0
  0
ENDSEC
  0
SECTION
  2
TABLES
  0
TABLE
  2
VPORT
  5
8
330
0
100
AcDbSymbolTable
 70
1
  0
VPORT
  5
23
330
8
100
AcDbSymbolTableRecord
100
AcDbViewportTableRecord
  2
*Active
 70
0
 10
0.0
 20
0.0
 11
1.0
 21
1.0
 12
0.0
 22
0.0
 13
0.0
 23
0.0
 14
0.5
 24
0.5
 15
0.5
 25
0.5
 16
0.0
 26
0.0
 36
1.0
 17
0.0
 27
0.0
 37
0.0
 40
1000.0
 41
1.34
 42
50.0
 43
0.0
 44
0.0
 50
0.0
 51
0.0
 71
0
 72
1000
 73
1
 74
3
 75
0
 76
0
 77
0
 78
0
281
0
 65
0
146
0.0
  0
ENDTAB
  0
TABLE
  2
LTYPE
  5
2
330
0
100
AcDbSymbolTable
 70
3
  0
LTYPE
  5
24
330
2
100
AcDbSymbolTableRecord
100
AcDbLinetypeTableRecord
  2
ByBlock
 70
0
  3

 72
65
 73
0
 40
0.0
  0
LTYPE
  5
25
330
2
100
AcDbSymbolTableRecord
100
AcDbLinetypeTableRecord
  2
ByLayer
 70
0
  3

 72
65
 73
0
 40
0.0
  0
LTYPE
  5
26
330
2
100
AcDbSymbolTableRecord
100
AcDbLinetypeTableRecord
  2
Continuous
 70
0
  3

 72
65
 73
0
 40
0.0
  0
ENDTAB
  0
TABLE
  2
LAYER
  5
1
330
0
100
AcDbSymbolTable
 70
6
  0
LAYER
  5
27
330
1
100
AcDbSymbolTableRecord
100
AcDbLayerTableRecord
  2
0
 70
0
 62
7
  6
Continuous
370
-3
390
13
347
21
  0
LAYER
  5
28
330
1
100
AcDbSymbolTableRecord
100
AcDbLayerTableRecord
  2
Defpoints
 70
0
 62
7
  6
Continuous
290
0
370
-3
390
13
347
21
  0
LAYER
  5
2F
330
1
100
AcDbSymbolTableRecord
100
AcDbLayerTableRecord
  2
APERTURE
 70
0
 62
7
  6
Continuous
370
-3
390
13
347
21
  0
LAYER
  5
30
330
1
100
AcDbSymbolTableRecord
100
AcDbLayerTableRecord
  2
IMPLANTS
 70
0
 62
7
  6
Continuous
370
-3
390
13
347
21
  0
LAYER
  5
31
330
1
100
AcDbSymbolTableRecord
100
AcDbLayerTableRecord
  2
MESA
 70
0
 62
7
  6
Continuous
370
-3
390
13
347
21
  0
LAYER
  5
32
330
1
100
AcDbSymbolTableRecord
100
AcDbLayerTableRecord
  2
CONTACTS
 70
0
 62
7
  6
Continuous
370
-3
390
13
347
21
  0
ENDTAB
  0
TABLE
  2
STYLE
  5
5
330
0
100
AcDbSymbolTable
 70
1
  0
STYLE
  5
29
330
5
100
AcDbSymbolTableRecord
100
AcDbTextStyleTableRecord
  2
Standard
 70
0
 40
0.0
 41
1.0
 50
0.0
 71
0
 42
2.5
  3
txt
  4

  0
ENDTAB
  0
TABLE
  2
VIEW
  5
7
330
0
100
AcDbSymbolTable
 70
0
  0
ENDTAB
  0
TABLE
  2
UCS
  5
6
330
0
100
AcDbSymbolTable
 70
0
  0
ENDTAB
  0
TABLE
  2
APPID
  5
3
330
0
100
AcDbSymbolTable
 70
3
  0
APPID
  5
2A
330
3
100
AcDbSymbolTableRecord
100
AcDbRegAppTableRecord
  2
ACAD
 70
0
  0
APPID
  5
39
330
3
100
AcDbSymbolTableRecord
100
AcDbRegAppTableRecord
  2
HATCHBACKGROUNDCOLOR
 70
0
  0
APPID
  5
3A
330
3
100
AcDbSymbolTableRecord
100
AcDbRegAppTableRecord
  2
EZDXF
 70
0
  0
ENDTAB
  0
TABLE
  2
DIMSTYLE
  5
4
330
0
100
AcDbSymbolTable
 70
1
100
AcDbDimStyleTable
  0
DIMSTYLE
105
2B
330
4
100
AcDbSymbolTableRecord
100
AcDbDimStyleTableRecord
  2
Standard
 70
0
 40
1.0
 41
2.5
 42
0.625
 43
3.75
 44
1.25
 45
0.0
 46
0.0
 47
0.0
 48
0.0
 49
2.5
140
2.5
141
2.5
142
0.0
143
0.03937007874
144
1.0
145
0.0
146
1.0
147
0.625
148
0.0
 69
0
 70
0
 71
0
 72
0
 73
0
 74
0
 75
0
 76
0
 77
1
 78
8
 79
3
170
0
171
3
172
1
173
0
174
0
175
0
176
0
177
0
178
0
179
2
271
2
272
2
273
2
274
3
275
0
276
0
277
2
278
44
279
0
280
0
281
0
282
0
283
0
284
8
285
0
286
0
288
0
289
3
290
0
371
-2
372
-2
  0
ENDTAB
  0
TABLE
  2
BLOCK_RECORD
  5
9
330
0
100
AcDbSymbolTable
 70
2
  0
BLOCK_RECORD
  5
17
330
9
100
AcDbSymbolTableRecord
100
AcDbBlockTableRecord
  2
*Model_Space
340
1A
 70
0
280
1
281
0
  0
BLOCK_RECORD
  5
1B
330
9
100
AcDbSymbolTableRecord
100
AcDbBlockTableRecord
  2
*Paper_Space
340
1E
 70
0
280
1
281
0
  0
ENDTAB
  0
ENDSEC
  0
SECTION
  2
BLOCKS
  0
BLOCK
  5
18
330
17
100
AcDbEntity
  8
0
100
AcDbBlockBegin
  2
*Model_Space
 70
0
 10
0.0
 20
0.0
 30
0.0
  3
*Model_Space
  1

  0
ENDBLK
  5
19
330
17
100
AcDbEntity
  8
0
100
AcDbBlockEnd
  0
BLOCK
  5
1C
330
1B
100
AcDbEntity
  8
0
100
AcDbBlockBegin
  2
*Paper_Space
 70
0
 10
0.0
 20
0.0
 30
0.0
  3
*Paper_Space
  1

  0
ENDBLK
  5
1D
330
1B
100
AcDbEntity
  8
0
100
AcDbBlockEnd
  0
ENDSEC
  0
SECTION
  2
ENTITIES
  0
LWPOLYLINE
  5
33
330
17
100
AcDbEntity
  8
MESA
100
AcDbPolyline
 90
8
 70
1
 10
-6.098006179770779
 20
-8.371614149589451
 10
-12.180339887498947
 20
5.389937556986201e-16
 10
-6.098006179770776
 20
8.371614149589451
 10
-9.106311163756034e-16
 20
6.390251834031945
 10
6.098006179770778
 20
8.371614149589451
 10
12.180339887498947
 20
5.389937556986201e-16
 10
6.098006179770778
 20
-8.371614149589451
 10
7.977377558567976e-16
 20
-6.390251834031944
  0
LWPOLYLINE
  5
34
330
17
100
AcDbEntity
  8
CONTACTS
100
AcDbPolyline
 90
49
 70
1
 10
-2.0
 20
2.834242329544689
 10
-3.879159129145303
 20
3.444818142959874
 10
-3.972391926752444
 20
3.4702027054939926
 10
-4.067639443264928
 20
3.486470500762774
 10
-4.164012378284118
 20
3.4934696407449133
 10
-4.260610923682012
 20
3.4911347763562115
 10
-4.3565331648672885
 20
3.479487707596371
 10
-4.450883501718837
 20
3.458637180008272
 10
-4.542781010562786
 20
3.428777869350135
 10
-4.631367669119491
 20
3.390188563960424
 10
-4.715816367626383
 20
3.3432295617862415
 10
-4.795338631338962
 20
3.2883393063784743
 10
-4.869191982307047
 20
3.226030293262494
 10
-4.936686871691352
 20
3.1568842849055154
 10
-4.997193117895198
 20
3.0815468789571936
 10
-6.809016994374946
 20
0.5877852522924728
 10
-6.861969666880047
 20
0.5069598538135901
 10
-6.906874360850543
 20
0.42140110777252904
 10
-6.943311813257742
 20
0.3319078531285281
 10
-6.97094181742605
 20
0.2393156642875576
 10
-6.98950639945105
 20
0.14448904956922135
 10
-6.998832226832325
 20
0.04831337952550682
 10
-6.998832226832325
 20
-0.048313379525507134
 10
-6.98950639945105
 20
-0.1444890495692212
 10
-6.97094181742605
 20
-0.23931566428755793
 10
-6.943311813257742
 20
-0.33190785312852844
 10
-6.906874360850544
 20
-0.421401107772529
 10
-6.861969666880047
 20
-0.5069598538135905
 10
-6.809016994374946
 20
-0.5877852522924735
 10
-4.9971931178952005
 20
-3.0815468789571923
 10
-4.936686871691355
 20
-3.156884284905514
 10
-4.869191982307051
 20
-3.2260302932624927
 10
-4.795338631338964
 20
-3.2883393063784734
 10
-4.715816367626386
 20
-3.34322956178624
 10
-4.631367669119495
 20
-3.390188563960423
 10
-4.542781010562789
 20
-3.4287778693501343
 10
-4.45088350171884
 20
-3.458637180008271
 10
-4.356533164867292
 20
-3.47948770759637
 10
-4.260610923682015
 20
-3.4911347763562106
 10
-4.164012378284121
 20
-3.4934696407449124
 10
-4.06763944326493
 20
-3.486470500762773
 10
-3.972391926752447
 20
-3.4702027054939917
 10
-3.8791591291453056
 20
-3.444818142959873
 10
-2.0
 20
-2.8342423295446877
 10
-2.0
 20
-5.98862900225949
 10
-5.716040168520674
 20
-7.196043645004504
 10
-10.944271909999157
 20
1.0949032299953579e-16
 10
-5.716040168520671
 20
7.196043645004504
 10
-2.0
 20
5.98862900225949
  0
LWPOLYLINE
  5
35
330
17
100
AcDbEntity
  8
CONTACTS
100
AcDbPolyline
 90
49
 70
1
 10
5.7160401685206725
 20
-7.196043645004504
 10
2.0
 20
-5.988629002259489
 10
2.0
 20
-2.834242329544688
 10
3.8791591291453056
 20
-3.444818142959874
 10
3.9723919267524472
 20
-3.4702027054939926
 10
4.06763944326493
 20
-3.486470500762774
 10
4.164012378284121
 20
-3.4934696407449133
 10
4.260610923682015
 20
-3.4911347763562115
 10
4.356533164867292
 20
-3.479487707596371
 10
4.45088350171884
 20
-3.458637180008272
 10
4.542781010562789
 20
-3.428777869350135
 10
4.631367669119494
 20
-3.390188563960424
 10
4.715816367626386
 20
-3.3432295617862415
 10
4.795338631338964
 20
-3.2883393063784747
 10
4.86919198230705
 20
-3.226030293262494
 10
4.936686871691354
 20
-3.1568842849055154
 10
4.9971931178952005
 20
-3.0815468789571936
 10
6.8090169943749475
 20
-0.5877852522924727
 10
6.861969666880049
 20
-0.5069598538135899
 10
6.906874360850545
 20
-0.42140110777252876
 10
6.943311813257743
 20
-0.33190785312852805
 10
6.970941817426052
 20
-0.23931566428755732
 10
6.989506399451051
 20
-0.14448904956922085
 10
6.998832226832326
 20
-0.04831337952550654
 10
6.998832226832326
 20
0.04831337952550765
 10
6.989506399451051
 20
0.14448904956922184
 10
6.970941817426052
 20
0.23931566428755832
 10
6.943311813257743
 20
0.33190785312852905
 10
6.906874360850545
 20
0.4214011077725297
 10
6.861969666880049
 20
0.506959853813591
 10
6.8090169943749475
 20
0.5877852522924738
 10
4.9971931178952
 20
3.0815468789571945
 10
4.936686871691353
 20
3.1568842849055168
 10
4.869191982307049
 20
3.226030293262495
 10
4.795338631338963
 20
3.2883393063784756
 10
4.715816367626385
 20
3.3432295617862424
 10
4.631367669119493
 20
3.390188563960425
 10
4.542781010562788
 20
3.428777869350136
 10
4.450883501718839
 20
3.4586371800082727
 10
4.356533164867291
 20
3.479487707596372
 10
4.260610923682014
 20
3.4911347763562124
 10
4.16401237828412
 20
3.493469640744914
 10
4.067639443264929
 20
3.486470500762775
 10
3.9723919267524463
 20
3.4702027054939935
 10
3.8791591291453047
 20
3.4448181429598748
 10
2.0
 20
2.83424232954469
 10
2.0
 20
5.98862900225949
 10
5.7160401685206725
 20
7.196043645004504
 10
10.944271909999157
 20
2.7602377669330927e-16
  0
LWPOLYLINE
  5
36
330
17
100
AcDbEntity
  8
IMPLANTS
100
AcDbPolyline
 90
5
 70
1
 10
-12.180339887498947
 20
5.389937556986201e-16
 10
-6.098006179770776
 20
8.371614149589451
 10
-1.0
 20
6.715171530264851
 10
-1.0
 20
-6.7151715302648505
 10
-6.098006179770779
 20
-8.371614149589451
  0
LWPOLYLINE
  5
37
330
17
100
AcDbEntity
  8
IMPLANTS
100
AcDbPolyline
 90
5
 70
1
 10
6.098006179770778
 20
8.371614149589451
 10
12.180339887498947
 20
5.389937556986201e-16
 10
6.098006179770778
 20
-8.371614149589451
 10
1.0
 20
-6.7151715302648505
 10
1.0
 20
6.715171530264851
  0
LWPOLYLINE
  5
38
330
17
100
AcDbEntity
  8
APERTURE
100
AcDbPolyline
 90
88
 70
1
 10
-4.188176123520253
 20
-2.4937616266647193
 10
-5.999999999999998
 20
-5.011323405443003e-16
 10
-4.18817612352025
 20
2.4937616266647202
 10
-1.5450849718747384
 20
1.6349692525561776
 10
-1.4702016261615216
 20
1.6112867600402954
 10
-1.3949555301961476
 20
1.5887834056472299
 10
-1.3193652498268662
 20
1.5674647417429544
 10
-1.2434494358242751
 20
1.5473360283887896
 10
-1.1672268192795288
 20
1.528402232043562
 10
-1.0907162069827148
 20
1.5106680243382087
 10
-1.0139364767825638
 20
1.4941377809231167
 10
-0.936906572928625
 20
1.4788155803885017
 10
-0.859645501397049
 20
1.4647052032580756
 10
-0.7821723252011561
 20
1.4518101310562566
 10
-0.7045061596879143
 20
1.4401335454491573
 10
-0.6266661678215227
 20
1.4296783274595564
 10
-0.5486715554552282
 20
1.4204470567560463
 10
-0.4705415665925728
 20
1.4124420110165445
 10
-0.39229547863922637
 20
1.4056651653663055
 10
-0.3139525976465679
 20
1.400118191890587
 10
-0.2355322535482148
 20
1.3958024592220948
 10
-0.15705379539064343
 20
1.3927190322032867
 10
-0.07853658655910466
 20
1.3908686716236422
 10
-1.7146924412139217e-15
 20
1.390251834031945
 10
0.07853658655910233
 20
1.3908686716236422
 10
0.15705379539063996
 20
1.3927190322032867
 10
0.23553225354821136
 20
1.3958024592220948
 10
0.31395259764656563
 20
1.400118191890587
 10
0.392295478639223
 20
1.4056651653663055
 10
0.4705415665925705
 20
1.4124420110165445
 10
0.5486715554552248
 20
1.4204470567560463
 10
0.6266661678215193
 20
1.4296783274595555
 10
0.7045061596879121
 20
1.4401335454491573
 10
0.7821723252011527
 20
1.4518101310562557
 10
0.8596455013970468
 20
1.4647052032580747
 10
0.9369065729286217
 20
1.4788155803885017
 10
1.0139364767825605
 20
1.4941377809231158
 10
1.0907162069827114
 20
1.5106680243382078
 10
1.1672268192795254
 20
1.528402232043562
 10
1.2434494358242727
 20
1.5473360283887896
 10
1.3193652498268629
 20
1.5674647417429544
 10
1.3949555301961443
 20
1.588783405647229
 10
1.4702016261615185
 20
1.6112867600402945
 10
1.5450849718747357
 20
1.6349692525561776
 10
4.188176123520252
 20
2.493761626664721
 10
6.0
 20
4.440892098500626e-16
 10
4.188176123520253
 20
-2.4937616266647202
 10
1.5450849718747384
 20
-1.6349692525561768
 10
1.4702016261615214
 20
-1.6112867600402936
 10
1.3949555301961474
 20
-1.588783405647229
 10
1.3193652498268658
 20
-1.5674647417429535
 10
1.2434494358242745
 20
-1.5473360283887887
 10
1.1672268192795283
 20
-1.528402232043561
 10
1.0907162069827143
 20
-1.5106680243382078
 10
1.0139364767825634
 20
-1.4941377809231158
 10
0.9369065729286244
 20
-1.4788155803885008
 10
0.8596455013970484
 20
-1.4647052032580739
 10
0.7821723252011554
 20
-1.4518101310562548
 10
0.7045061596879149
 20
-1.4401335454491564
 10
0.6266661678215221
 20
-1.4296783274595546
 10
0.5486715554552276
 20
-1.4204470567560454
 10
0.4705415665925722
 20
-1.4124420110165437
 10
0.39229547863922576
 20
-1.4056651653663046
 10
0.3139525976465684
 20
-1.400118191890586
 10
0.2355322535482142
 20
-1.395802459222094
 10
0.1570537953906428
 20
-1.3927190322032859
 10
0.07853658655910403
 20
-1.3908686716236414
 10
1.103899455643636e-15
 20
-1.390251834031944
 10
-0.07853658655910184
 20
-1.3908686716236414
 10
-0.1570537953906406
 20
-1.3927190322032859
 10
-0.23553225354821197
 20
-1.395802459222094
 10
-0.31395259764656624
 20
-1.400118191890586
 10
-0.3922954786392236
 20
-1.4056651653663046
 10
-0.47054156659257
 20
-1.4124420110165437
 10
-0.5486715554552254
 20
-1.4204470567560454
 10
-0.6266661678215211
 20
-1.4296783274595555
 10
-0.7045061596879126
 20
-1.4401335454491564
 10
-0.7821723252011533
 20
-1.4518101310562548
 10
-0.8596455013970462
 20
-1.4647052032580739
 10
-0.9369065729286222
 20
-1.4788155803885008
 10
-1.013936476782562
 20
-1.4941377809231158
 10
-1.0907162069827119
 20
-1.510668024338207
 10
-1.1672268192795259
 20
-1.528402232043561
 10
-1.2434494358242723
 20
-1.5473360283887878
 10
-1.3193652498268635
 20
-1.5674647417429535
 10
-1.3949555301961458
 20
-1.588783405647229
 10
-1.470201626161519
 20
-1.6112867600402936
 10
-1.5450849718747361
 20
-1.6349692525561759
  0
ENDSEC
  0
SECTION
  2
OBJECTS
  0
DICTIONARY
  5
A
330
0
100
AcDbDictionary
281
1
  3
ACAD_COLOR
350
B
  3
ACAD_GROUP
350
C
  3
ACAD_LAYOUT
350
D
  3
ACAD_MATERIAL
350
E
  3
ACAD_MLEADERSTYLE
350
F
  3
ACAD_MLINESTYLE
350
10
  3
ACAD_PLOTSETTINGS
350
11
  3
ACAD_PLOTSTYLENAME
350
12
  3
ACAD_SCALELIST
350
14
  3
ACAD_TABLESTYLE
350
15
  3
ACAD_VISUALSTYLE
350
16
  3
EZDXF_META
350
2D
  0
DICTIONARY
  5
B
330
A
100
AcDbDictionary
281
1
  0
DICTIONARY
  5
C
330
A
100
AcDbDictionary
281
1
  0
DICTIONARY
  5
D
330
A
100
AcDbDictionary
281
1
  3
Model
350
1A
  3
Layout1
350
1E
  0
DICTIONARY
  5
E
330
A
100
AcDbDictionary
281
1
  3
ByBlock
350
1F
  3
ByLayer
350
20
  3
Global
350
21
  0
DICTIONARY
  5
F
330
A
100
AcDbDictionary
281
1
  3
Standard
350
2C
  0
DICTIONARY
  5
10
330
A
100
AcDbDictionary
281
1
  3
Standard
350
22
  0
DICTIONARY
  5
11
330
A
100
AcDbDictionary
281
1
  0
ACDBDICTIONARYWDFLT
  5
12
330
A
100
AcDbDictionary
281
1
  3
Normal
350
13
100
AcDbDictionaryWithDefault
340
13
  0
ACDBPLACEHOLDER
  5
13
330
12
  0
DICTIONARY
  5
14
330
A
100
AcDbDictionary
281
1
  0
DICTIONARY
  5
15
330
A
100
AcDbDictionary
281
1
  0
DICTIONARY
  5
16
330
A
100
AcDbDictionary
281
1
  0
LAYOUT
  5
1A
330
D
100
AcDbPlotSettings
  1

  4
A3
  6

 40
7.5
 41
20.0
 42
7.5
 43
20.0
 44
420.0
 45
297.0
 46
0.0
 47
0.0
 48
0.0
 49
0.0
140
0.0
141
0.0
142
1.0
143
1.0
 70
1024
 72
1
 73
0
 74
5
  7

 75
16
 76
0
 77
2
 78
300
147
1.0
148
0.0
149
0.0
100
AcDbLayout
  1
Model
 70
1
 71
0
 10
0.0
 20
0.0
 11
420.0
 21
297.0
 12
0.0
 22
0.0
 32
0.0
 14
1e+20
 24
1e+20
 34
1e+20
 15
-1e+20
 25
-1e+20
 35
-1e+20
146
0.0
 13
0.0
 23
0.0
 33
0.0
 16
1.0
 26
0.0
 36
0.0
 17
0.0
 27
1.0
 37
0.0
 76
1
330
17
  0
LAYOUT
  5
1E
330
D
100
AcDbPlotSettings
  1

  4
A3
  6

 40
7.5
 41
20.0
 42
7.5
 43
20.0
 44
420.0
 45
297.0
 46
0.0
 47
0.0
 48
0.0
 49
0.0
140
0.0
141
0.0
142
1.0
143
1.0
 70
0
 72
1
 73
0
 74
5
  7

 75
16
 76
0
 77
2
 78
300
147
1.0
148
0.0
149
0.0
100
AcDbLayout
  1
Layout1
 70
1
 71
1
 10
0.0
 20
0.0
 11
420.0
 21
297.0
 12
0.0
 22
0.0
 32
0.0
 14
1e+20
 24
1e+20
 34
1e+20
 15
-1e+20
 25
-1e+20
 35
-1e+20
146
0.0
 13
0.0
 23
0.0
 33
0.0
 16
1.0
 26
0.0
 36
0.0
 17
0.0
 27
1.0
 37
0.0
 76
1
330
1B
  0
MATERIAL
  5
1F
102
{ACAD_REACTORS
330
E
102
}
330
E
100
AcDbMaterial
  1
ByBlock
  2

 70
0
 40
1.0
 71
1
 41
1.0
 91
-1023410177
 42
1.0
 72
1
  3

 73
1
 74
1
 75
1
 44
0.5
 73
0
 45
1.0
 46
1.0
 77
1
  4

 78
1
 79
1
170
1
 48
1.0
171
1
  6

172
1
173
1
174
1
140
1.0
141
1.0
175
1
  7

176
1
177
1
178
1
143
1.0
179
1
  8

270
1
271
1
272
1
145
1.0
146
1.0
273
1
  9

274
1
275
1
276
1
 42
1.0
 72
1
  3

 73
1
 74
1
 75
1
 94
63
  0
MATERIAL
  5
20
102
{ACAD_REACTORS
330
E
102
}
330
E
100
AcDbMaterial
  1
ByLayer
  2

 70
0
 40
1.0
 71
1
 41
1.0
 91
-1023410177
 42
1.0
 72
1
  3

 73
1
 74
1
 75
1
 44
0.5
 73
0
 45
1.0
 46
1.0
 77
1
  4

 78
1
 79
1
170
1
 48
1.0
171
1
  6

172
1
173
1
174
1
140
1.0
141
1.0
175
1
  7

176
1
177
1
178
1
143
1.0
179
1
  8

270
1
271
1
272
1
145
1.0
146
1.0
273
1
  9

274
1
275
1
276
1
 42
1.0
 72
1
  3

 73
1
 74
1
 75
1
 94
63
  0
MATERIAL
  5
21
102
{ACAD_REACTORS
330
E
102
}
330
E
100
AcDbMaterial
  1
Global
  2

 70
0
 40
1.0
 71
1
 41
1.0
 91
-1023410177
 42
1.0
 72
1
  3

 73
1
 74
1
 75
1
 44
0.5
 73
0
 45
1.0
 46
1.0
 77
1
  4

 78
1
 79
1
170
1
 48
1.0
171
1
  6

172
1
173
1
174
1
140
1.0
141
1.0
175
1
  7

176
1
177
1
178
1
143
1.0
179
1
  8

270
1
271
1
272
1
145
1.0
146
1.0
273
1
  9

274
1
275
1
276
1
 42
1.0
 72
1
  3

 73
1
 74
1
 75
1
 94
63
  0
MLINESTYLE
  5
22
102
{ACAD_REACTORS
330
10
102
}
330
10
100
AcDbMlineStyle
  2
Standard
 70
0
  3

 62
256
 51
90.0
 52
90.0
 71
2
 49
0.5
 62
256
  6
BYLAYER
 49
-0.5
 62
256
  6
BYLAYER
  0
MLEADERSTYLE
  5
2C
102
{ACAD_REACTORS
330
F
102
}
330
F
100
AcDbMLeaderStyle
179
2
170
2
171
1
172
0
 90
2
 40
0.0
 41
0.0
173
1
 91
-1056964608
 92
-2
290
1
 42
2.0
291
1
 43
8.0
  3
Standard
 44
4.0
300

342
29
174
1
175
1
176
0
178
1
 93
-1056964608
 45
4.0
292
0
297
0
 46
4.0
 94
-1056964608
 47
1.0
 49
1.0
140
1.0
294
1
141
0.0
177
0
142
1.0
295
0
296
0
143
3.75
271
0
272
9
273
9
  0
DICTIONARY
  5
2D
330
A
100
AcDbDictionary
280
1
281
1
  3
CREATED_BY_EZDXF
350
2E
  3
WRITTEN_BY_EZDXF
350
3B
  0
DICTIONARYVAR
  5
2E
330
2D
100
DictionaryVariables
280
0
  1
1.4.2 @ 2025-10-24T20:34:40.720825+00:00
  0
DICTIONARYVAR
  5
3B
330
2D
100
DictionaryVariables
280
0
  1
1.4.2 @ 2025-10-24T20:34:40.724339+00:00
  0
ENDSEC
  0
EOF
